solid impresora_printedparts
facet normal -1.4901377444745733e-08 0.9999999999999998 2.0998018139011493e-12
  outer loop
    vertex -60.761426250356166 -64.28017456932068 8.794007633229885
    vertex -60.8908355467231 -64.28017457124668 7.664598079681015
    vertex -61.32613101774614 -64.28017457773437 8.229302849005022
  endloop
endfacet
facet normal -1.4901377444745733e-08 0.9999999999999998 2.0998018139011493e-12
  outer loop
    vertex -60.8908355467231 -64.28017457124668 7.664598079681015
    vertex -60.761426250356166 -64.28017456932068 8.794007633229885
    vertex -60.76142623352136 -64.2801745693183 7.664598081609219
  endloop
endfacet
facet normal -1.4901377444745733e-08 0.9999999999999998 2.0998018139011493e-12
  outer loop
    vertex -60.76142623352136 -64.2801745693183 7.664598081609219
    vertex -60.761426250356166 -64.28017456932068 8.794007633229885
    vertex -59.761426250356216 -64.28017455441929 8.794007648130572
  endloop
endfacet
facet normal -1.4901377444745733e-08 0.9999999999999998 2.0998018139011493e-12
  outer loop
    vertex -60.76142623352136 -64.2801745693183 7.664598081609219
    vertex -59.761426250356216 -64.28017455441929 8.794007648130572
    vertex -60.751203748557664 -64.28017456915893 4.311044428998455
  endloop
endfacet
facet normal -1.4901377444745733e-08 0.9999999999999998 2.0998018139011493e-12
  outer loop
    vertex -54.92735165776205 -64.28017448238492 8.794007720161847
    vertex -54.93757402596172 -64.28017448252784 4.311044515625667
    vertex -55.927351657762 -64.28017449728631 8.79400770526105
  endloop
endfacet
facet normal -1.4901377444745733e-08 0.9999999999999998 2.0998018139011493e-12
  outer loop
    vertex -54.93757402596172 -64.28017448252784 4.311044515625667
    vertex -54.92735165776205 -64.28017448238492 8.794007720161847
    vertex -54.92735164093338 -64.28017448238255 7.664598168541153
  endloop
endfacet
facet normal -1.4901377444745733e-08 0.9999999999999998 2.0998018139011493e-12
  outer loop
    vertex -54.92735164093338 -64.28017448238255 7.664598168541153
    vertex -54.92735165776205 -64.28017448238492 8.794007720161847
    vertex -54.79794232773165 -64.28017448045418 7.664598170469519
  endloop
endfacet
facet normal -1.4901377444745733e-08 0.9999999999999998 2.0998018139011493e-12
  outer loop
    vertex -54.79794232773165 -64.28017448045418 7.664598170469519
    vertex -54.92735165776205 -64.28017448238492 8.794007720161847
    vertex -54.362646873537635 -64.28017447396887 8.229302952766064
  endloop
endfacet
facet normal -1.4901377444745733e-08 0.9999999999999998 2.0998018139011493e-12
  outer loop
    vertex -62.849440120234945 -64.28017460042975 6.311044397733387
    vertex -61.47667061694867 -64.2801745799677 3.5110444181884337
    vertex -63.99691499111894 -64.2801746175287 6.311044380636193
  endloop
endfacet
facet normal -1.4901377444745733e-08 0.9999999999999998 2.0998018139011493e-12
  outer loop
    vertex -61.47667061694867 -64.2801745799677 3.5110444181884337
    vertex -62.849440120234945 -64.28017460042975 6.311044397733387
    vertex -61.051203748557235 -64.28017457362934 4.311044424528164
  endloop
endfacet
facet normal -1.4901377444745733e-08 0.9999999999999998 2.0998018139011493e-12
  outer loop
    vertex -61.47667061694867 -64.2801745799677 3.5110444181884337
    vertex -61.051203748557235 -64.28017457362934 4.311044424528164
    vertex -54.21210713372757 -64.2801744717157 3.511044526435773
  endloop
endfacet
facet normal -1.4901377444745733e-08 0.9999999999999998 2.0998018139011493e-12
  outer loop
    vertex -54.21210713372757 -64.2801744717157 3.511044526435773
    vertex -61.051203748557235 -64.28017457362934 4.311044424528164
    vertex -60.751203748557664 -64.28017456915893 4.311044428998455
  endloop
endfacet
facet normal -1.4901377444745733e-08 0.9999999999999998 2.0998018139011493e-12
  outer loop
    vertex -54.21210713372757 -64.2801744717157 3.511044526435773
    vertex -60.751203748557664 -64.28017456915893 4.311044428998455
    vertex -59.76142618355517 -64.28017455440988 4.311044443746782
  endloop
endfacet
facet normal -1.4901377444745733e-08 0.9999999999999998 2.0998018139011493e-12
  outer loop
    vertex -59.76142618355517 -64.28017455440988 4.311044443746782
    vertex -60.751203748557664 -64.28017456915893 4.311044428998455
    vertex -59.761426250356216 -64.28017455441929 8.794007648130572
  endloop
endfacet
facet normal -1.4901377444745733e-08 0.9999999999999998 2.0998018139011493e-12
  outer loop
    vertex -54.21210713372757 -64.2801744717157 3.511044526435773
    vertex -59.76142618355517 -64.28017455440988 4.311044443746782
    vertex -55.92735159096422 -64.28017449727689 4.311044500877273
  endloop
endfacet
facet normal -1.4901377444745733e-08 0.9999999999999998 2.0998018139011493e-12
  outer loop
    vertex -54.21210713372757 -64.2801744717157 3.511044526435773
    vertex -55.92735159096422 -64.28017449727689 4.311044500877273
    vertex -54.93757402596172 -64.28017448252784 4.311044515625667
  endloop
endfacet
facet normal -1.4901377444745733e-08 0.9999999999999998 2.0998018139011493e-12
  outer loop
    vertex -54.93757402596172 -64.28017448252784 4.311044515625667
    vertex -55.92735159096422 -64.28017449727689 4.311044500877273
    vertex -55.927351657762 -64.28017449728631 8.79400770526105
  endloop
endfacet
facet normal -1.4901377444745733e-08 0.9999999999999998 2.0998018139011493e-12
  outer loop
    vertex -54.21210713372757 -64.2801744717157 3.511044526435773
    vertex -54.93757402596172 -64.28017448252784 4.311044515625667
    vertex -54.63757402596143 -64.28017447805743 4.311044520095908
  endloop
endfacet
facet normal -1.4901377444745733e-08 0.9999999999999998 2.0998018139011493e-12
  outer loop
    vertex -54.21210713372757 -64.2801744717157 3.511044526435773
    vertex -54.63757402596143 -64.28017447805743 4.311044520095908
    vertex -52.83933771388194 -64.28017445126542 6.311044546891192
  endloop
endfacet
facet normal -1.4901377444745733e-08 0.9999999999999998 2.0998018139011493e-12
  outer loop
    vertex -54.21210713372757 -64.2801744717157 3.511044526435773
    vertex -52.83933771388194 -64.28017445126542 6.311044546891192
    vertex -51.69186284299794 -64.28017443416647 6.311044563990423
  endloop
endfacet
facet normal 1.4901377444745733e-08 -0.9999999999999998 -2.0998018139011493e-12
  outer loop
    vertex -60.89083239955219 -275.4801745712468 7.664598079237538
    vertex -60.76142310318525 -275.48017456932075 8.794007632786407
    vertex -61.32612787057523 -275.4801745777345 8.229302848561542
  endloop
endfacet
facet normal 1.4901377444745733e-08 -0.9999999999999998 -2.0998018139011493e-12
  outer loop
    vertex -60.76142310318525 -275.48017456932075 8.794007632786407
    vertex -60.89083239955219 -275.4801745712468 7.664598079237538
    vertex -60.76142308635045 -275.4801745693184 7.664598081165741
  endloop
endfacet
facet normal 1.4901377444745733e-08 -0.9999999999999998 -2.0998018139011493e-12
  outer loop
    vertex -60.76142310318525 -275.48017456932075 8.794007632786407
    vertex -60.76142308635045 -275.4801745693184 7.664598081165741
    vertex -59.76142310318529 -275.48017455441936 8.794007647687096
  endloop
endfacet
facet normal 1.4901377444745733e-08 -0.9999999999999998 -2.0998018139011493e-12
  outer loop
    vertex -59.76142310318529 -275.48017455441936 8.794007647687096
    vertex -60.76142308635045 -275.4801745693184 7.664598081165741
    vertex -60.75120060138675 -275.4801745691591 4.311044428554977
  endloop
endfacet
facet normal 1.4901377444745733e-08 -0.9999999999999998 -2.0998018139011493e-12
  outer loop
    vertex -61.476667469777745 -275.4801745799678 3.5110444177449556
    vertex -62.84943697306403 -275.48017460042985 6.311044397289909
    vertex -63.99691184394803 -275.4801746175288 6.311044380192714
  endloop
endfacet
facet normal 1.4901377444745733e-08 -0.9999999999999998 -2.0998018139011493e-12
  outer loop
    vertex -62.84943697306403 -275.48017460042985 6.311044397289909
    vertex -61.476667469777745 -275.4801745799678 3.5110444177449556
    vertex -61.05120060138632 -275.4801745736294 4.3110444240846855
  endloop
endfacet
facet normal 1.4901377444745733e-08 -0.9999999999999998 -2.0998018139011493e-12
  outer loop
    vertex -61.05120060138632 -275.4801745736294 4.3110444240846855
    vertex -61.476667469777745 -275.4801745799678 3.5110444177449556
    vertex -54.212103986556656 -275.4801744717158 3.511044525992294
  endloop
endfacet
facet normal 1.4901377444745733e-08 -0.9999999999999998 -2.0998018139011493e-12
  outer loop
    vertex -61.05120060138632 -275.4801745736294 4.3110444240846855
    vertex -54.212103986556656 -275.4801744717158 3.511044525992294
    vertex -60.75120060138675 -275.4801745691591 4.311044428554977
  endloop
endfacet
facet normal 1.4901377444745733e-08 -0.9999999999999998 -2.0998018139011493e-12
  outer loop
    vertex -60.75120060138675 -275.4801745691591 4.311044428554977
    vertex -54.212103986556656 -275.4801744717158 3.511044525992294
    vertex -59.76142303638425 -275.48017455441 4.311044443303304
  endloop
endfacet
facet normal 1.4901377444745733e-08 -0.9999999999999998 -2.0998018139011493e-12
  outer loop
    vertex -60.75120060138675 -275.4801745691591 4.311044428554977
    vertex -59.76142303638425 -275.48017455441 4.311044443303304
    vertex -59.76142310318529 -275.48017455441936 8.794007647687096
  endloop
endfacet
facet normal 1.4901377444745733e-08 -0.9999999999999998 -2.0998018139011493e-12
  outer loop
    vertex -59.76142303638425 -275.48017455441 4.311044443303304
    vertex -54.212103986556656 -275.4801744717158 3.511044525992294
    vertex -55.9273484437933 -275.480174497277 4.311044500433795
  endloop
endfacet
facet normal 1.4901377444745733e-08 -0.9999999999999998 -2.0998018139011493e-12
  outer loop
    vertex -55.9273484437933 -275.480174497277 4.311044500433795
    vertex -54.212103986556656 -275.4801744717158 3.511044525992294
    vertex -54.93757087879081 -275.48017448252796 4.311044515182189
  endloop
endfacet
facet normal 1.4901377444745733e-08 -0.9999999999999998 -2.0998018139011493e-12
  outer loop
    vertex -55.9273484437933 -275.480174497277 4.311044500433795
    vertex -54.93757087879081 -275.48017448252796 4.311044515182189
    vertex -55.92734851059109 -275.48017449728644 8.794007704817574
  endloop
endfacet
facet normal 1.4901377444745733e-08 -0.9999999999999998 -2.0998018139011493e-12
  outer loop
    vertex -54.93757087879081 -275.48017448252796 4.311044515182189
    vertex -54.212103986556656 -275.4801744717158 3.511044525992294
    vertex -54.63757087879051 -275.48017447805756 4.31104451965243
  endloop
endfacet
facet normal 1.4901377444745733e-08 -0.9999999999999998 -2.0998018139011493e-12
  outer loop
    vertex -54.63757087879051 -275.48017447805756 4.31104451965243
    vertex -54.212103986556656 -275.4801744717158 3.511044525992294
    vertex -52.839334566711024 -275.48017445126555 6.311044546447714
  endloop
endfacet
facet normal 1.4901377444745733e-08 -0.9999999999999998 -2.0998018139011493e-12
  outer loop
    vertex -52.839334566711024 -275.48017445126555 6.311044546447714
    vertex -54.212103986556656 -275.4801744717158 3.511044525992294
    vertex -51.69185969582703 -275.4801744341666 6.311044563546945
  endloop
endfacet
facet normal 1.4901377444745733e-08 -0.9999999999999998 -2.0998018139011493e-12
  outer loop
    vertex -54.93757087879081 -275.48017448252796 4.311044515182189
    vertex -54.92734851059114 -275.48017448238505 8.794007719718369
    vertex -55.92734851059109 -275.48017449728644 8.794007704817574
  endloop
endfacet
facet normal 1.4901377444745733e-08 -0.9999999999999998 -2.0998018139011493e-12
  outer loop
    vertex -54.92734851059114 -275.48017448238505 8.794007719718369
    vertex -54.93757087879081 -275.48017448252796 4.311044515182189
    vertex -54.927348493762466 -275.48017448238267 7.664598168097675
  endloop
endfacet
facet normal 1.4901377444745733e-08 -0.9999999999999998 -2.0998018139011493e-12
  outer loop
    vertex -54.92734851059114 -275.48017448238505 8.794007719718369
    vertex -54.927348493762466 -275.48017448238267 7.664598168097675
    vertex -54.79793918056073 -275.4801744804543 7.664598170026042
  endloop
endfacet
facet normal 1.4901377444745733e-08 -0.9999999999999998 -2.0998018139011493e-12
  outer loop
    vertex -54.92734851059114 -275.48017448238505 8.794007719718369
    vertex -54.79793918056073 -275.4801744804543 7.664598170026042
    vertex -54.36264372636672 -275.48017447396893 8.229302952322588
  endloop
endfacet
facet normal 0.7432619054111596 1.1077031159108279e-08 -0.6690005530375684
  outer loop
    vertex -51.69186284299794 -64.28017443416647 6.311044563990423
    vertex -54.212103986556656 -275.4801744717158 3.511044525992294
    vertex -54.21210713372757 -64.2801744717157 3.511044526435773
  endloop
endfacet
facet normal 0.7432619054111596 1.1077031159108279e-08 -0.6690005530375684
  outer loop
    vertex -54.212103986556656 -275.4801744717158 3.511044525992294
    vertex -51.69186284299794 -64.28017443416647 6.311044563990423
    vertex -51.69185969582703 -275.4801744341666 6.311044563546945
  endloop
endfacet
facet normal 1.490073501309232e-08 2.100023855369309e-12 -0.9999999999999999
  outer loop
    vertex -54.212103986556656 -275.4801744717158 3.511044525992294
    vertex -61.47667061694867 -64.2801745799677 3.5110444181884337
    vertex -54.21210713372757 -64.2801744717157 3.511044526435773
  endloop
endfacet
facet normal 1.490073501309232e-08 2.100023855369309e-12 -0.9999999999999999
  outer loop
    vertex -61.47667061694867 -64.2801745799677 3.5110444181884337
    vertex -54.212103986556656 -275.4801744717158 3.511044525992294
    vertex -61.476667469777745 -275.4801745799678 3.5110444177449556
  endloop
endfacet
facet normal -0.7432618854744246 -1.1074221324827429e-08 -0.6690005751873486
  outer loop
    vertex -63.99691184394803 -275.4801746175288 6.311044380192714
    vertex -61.47667061694867 -64.2801745799677 3.5110444181884337
    vertex -61.476667469777745 -275.4801745799678 3.5110444177449556
  endloop
endfacet
facet normal -0.7432618854744246 -1.1074221324827429e-08 -0.6690005751873486
  outer loop
    vertex -61.47667061694867 -64.2801745799677 3.5110444181884337
    vertex -63.99691184394803 -275.4801746175288 6.311044380192714
    vertex -63.99691499111894 -64.2801746175287 6.311044380636193
  endloop
endfacet
facet normal -1.4899843398878063e-08 -2.1000238420830285e-12 0.9999999999999999
  outer loop
    vertex -63.99691184394803 -275.4801746175288 6.311044380192714
    vertex -62.849440120234945 -64.28017460042975 6.311044397733387
    vertex -63.99691499111894 -64.2801746175287 6.311044380636193
  endloop
endfacet
facet normal -1.4899843398878063e-08 -2.1000238420830285e-12 0.9999999999999999
  outer loop
    vertex -62.849440120234945 -64.28017460042975 6.311044397733387
    vertex -63.99691184394803 -275.4801746175288 6.311044380192714
    vertex -62.84943697306403 -275.48017460042985 6.311044397289909
  endloop
endfacet
facet normal 0.7436201094557365 1.1079560191824255e-08 0.6686023727246551
  outer loop
    vertex -62.849440120234945 -64.28017460042975 6.311044397733387
    vertex -61.05120060138632 -275.4801745736294 4.3110444240846855
    vertex -61.051203748557235 -64.28017457362934 4.311044424528164
  endloop
endfacet
facet normal 0.7436201094557365 1.1079560191824255e-08 0.6686023727246551
  outer loop
    vertex -61.05120060138632 -275.4801745736294 4.3110444240846855
    vertex -62.849440120234945 -64.28017460042975 6.311044397733387
    vertex -62.84943697306403 -275.48017460042985 6.311044397289909
  endloop
endfacet
facet normal -1.4900957633122704e-08 -2.1000238586866537e-12 0.9999999999999999
  outer loop
    vertex -61.05120060138632 -275.4801745736294 4.3110444240846855
    vertex -60.751203748557664 -64.28017456915893 4.311044428998455
    vertex -61.051203748557235 -64.28017457362934 4.311044424528164
  endloop
endfacet
facet normal -1.4900957633122704e-08 -2.1000238586866537e-12 0.9999999999999999
  outer loop
    vertex -60.751203748557664 -64.28017456915893 4.311044428998455
    vertex -61.05120060138632 -275.4801745736294 4.3110444240846855
    vertex -60.75120060138675 -275.4801745691591 4.311044428554977
  endloop
endfacet
facet normal -0.9999953541046726 -1.4901302079795026e-08 -0.0030482403235979625
  outer loop
    vertex -60.76142308635045 -275.4801745693184 7.664598081165741
    vertex -60.751203748557664 -64.28017456915893 4.311044428998455
    vertex -60.75120060138675 -275.4801745691591 4.311044428554977
  endloop
endfacet
facet normal -0.9999953541046726 -1.4901302079795026e-08 -0.0030482403235979625
  outer loop
    vertex -60.751203748557664 -64.28017456915893 4.311044428998455
    vertex -60.76142308635045 -275.4801745693184 7.664598081165741
    vertex -60.76142623352136 -64.2801745693183 7.664598081609219
  endloop
endfacet
facet normal 1.4900062930537989e-08 2.1000238453543525e-12 -0.9999999999999999
  outer loop
    vertex -60.76142308635045 -275.4801745693184 7.664598081165741
    vertex -60.8908355467231 -64.28017457124668 7.664598079681015
    vertex -60.76142623352136 -64.2801745693183 7.664598081609219
  endloop
endfacet
facet normal 1.4900062930537989e-08 2.1000238453543525e-12 -0.9999999999999999
  outer loop
    vertex -60.8908355467231 -64.28017457124668 7.664598079681015
    vertex -60.76142308635045 -275.4801745693184 7.664598081165741
    vertex -60.89083239955219 -275.4801745712468 7.664598079237538
  endloop
endfacet
facet normal -0.7920086975607938 -1.1800738802944356e-08 -0.6105098058082726
  outer loop
    vertex -61.32612787057523 -275.4801745777345 8.229302848561542
    vertex -60.8908355467231 -64.28017457124668 7.664598079681015
    vertex -60.89083239955219 -275.4801745712468 7.664598079237538
  endloop
endfacet
facet normal -0.7920086975607938 -1.1800738802944356e-08 -0.6105098058082726
  outer loop
    vertex -60.8908355467231 -64.28017457124668 7.664598079681015
    vertex -61.32612787057523 -275.4801745777345 8.229302848561542
    vertex -61.32613101774614 -64.28017457773437 8.229302849005022
  endloop
endfacet
facet normal -0.7071067917265832 -1.0538350169424637e-08 0.7071067706465117
  outer loop
    vertex -60.76142310318525 -275.48017456932075 8.794007632786407
    vertex -61.32613101774614 -64.28017457773437 8.229302849005022
    vertex -61.32612787057523 -275.4801745777345 8.229302848561542
  endloop
endfacet
facet normal -0.7071067917265832 -1.0538350169424637e-08 0.7071067706465117
  outer loop
    vertex -61.32613101774614 -64.28017457773437 8.229302849005022
    vertex -60.76142310318525 -275.48017456932075 8.794007632786407
    vertex -60.761426250356166 -64.28017456932068 8.794007633229885
  endloop
endfacet
facet normal -1.490068973630686e-08 -2.1000238546946223e-12 0.9999999999999999
  outer loop
    vertex -60.76142310318525 -275.48017456932075 8.794007632786407
    vertex -59.761426250356216 -64.28017455441929 8.794007648130572
    vertex -60.761426250356166 -64.28017456932068 8.794007633229885
  endloop
endfacet
facet normal -1.490068973630686e-08 -2.1000238546946223e-12 0.9999999999999999
  outer loop
    vertex -59.761426250356216 -64.28017455441929 8.794007648130572
    vertex -60.76142310318525 -275.48017456932075 8.794007632786407
    vertex -59.76142310318529 -275.48017455441936 8.794007647687096
  endloop
endfacet
facet normal 0.9999999999999998 1.4901377710705373e-08 1.4901086124333764e-08
  outer loop
    vertex -59.761426250356216 -64.28017455441929 8.794007648130572
    vertex -59.76142303638425 -275.48017455441 4.311044443303304
    vertex -59.76142618355517 -64.28017455440988 4.311044443746782
  endloop
endfacet
facet normal 0.9999999999999998 1.4901377710705373e-08 1.4901086124333764e-08
  outer loop
    vertex -59.76142303638425 -275.48017455441 4.311044443303304
    vertex -59.761426250356216 -64.28017455441929 8.794007648130572
    vertex -59.76142310318529 -275.48017455441936 8.794007647687096
  endloop
endfacet
facet normal -1.4900725083894653e-08 -2.1000238552213498e-12 0.9999999999999999
  outer loop
    vertex -59.76142303638425 -275.48017455441 4.311044443303304
    vertex -55.92735159096422 -64.28017449727689 4.311044500877273
    vertex -59.76142618355517 -64.28017455440988 4.311044443746782
  endloop
endfacet
facet normal -1.4900725083894653e-08 -2.1000238552213498e-12 0.9999999999999999
  outer loop
    vertex -55.92735159096422 -64.28017449727689 4.311044500877273
    vertex -59.76142303638425 -275.48017455441 4.311044443303304
    vertex -55.9273484437933 -275.480174497277 4.311044500433795
  endloop
endfacet
facet normal -0.9999999999999998 -1.4901377710705373e-08 -1.4900361469403579e-08
  outer loop
    vertex -55.92734851059109 -275.48017449728644 8.794007704817574
    vertex -55.92735159096422 -64.28017449727689 4.311044500877273
    vertex -55.9273484437933 -275.480174497277 4.311044500433795
  endloop
endfacet
facet normal -0.9999999999999998 -1.4901377710705373e-08 -1.4900361469403579e-08
  outer loop
    vertex -55.92735159096422 -64.28017449727689 4.311044500877273
    vertex -55.92734851059109 -275.48017449728644 8.794007704817574
    vertex -55.927351657762 -64.28017449728631 8.79400770526105
  endloop
endfacet
facet normal -1.4900794075066714e-08 -2.1000238562494133e-12 0.9999999999999999
  outer loop
    vertex -55.92734851059109 -275.48017449728644 8.794007704817574
    vertex -54.92735165776205 -64.28017448238492 8.794007720161847
    vertex -55.927351657762 -64.28017449728631 8.79400770526105
  endloop
endfacet
facet normal -1.4900794075066714e-08 -2.1000238562494133e-12 0.9999999999999999
  outer loop
    vertex -54.92735165776205 -64.28017448238492 8.794007720161847
    vertex -55.92734851059109 -275.48017449728644 8.794007704817574
    vertex -54.92734851059114 -275.48017448238505 8.794007719718369
  endloop
endfacet
facet normal 0.7071067706504383 1.0535380287157551e-08 0.7071067917226564
  outer loop
    vertex -54.92735165776205 -64.28017448238492 8.794007720161847
    vertex -54.36264372636672 -275.48017447396893 8.229302952322588
    vertex -54.362646873537635 -64.28017447396887 8.229302952766064
  endloop
endfacet
facet normal 0.7071067706504383 1.0535380287157551e-08 0.7071067917226564
  outer loop
    vertex -54.36264372636672 -275.48017447396893 8.229302952322588
    vertex -54.92735165776205 -64.28017448238492 8.794007720161847
    vertex -54.92734851059114 -275.48017448238505 8.794007719718369
  endloop
endfacet
facet normal 0.792008715754827 1.1803302973206221e-08 -0.6105097822053217
  outer loop
    vertex -54.362646873537635 -64.28017447396887 8.229302952766064
    vertex -54.79793918056073 -275.4801744804543 7.664598170026042
    vertex -54.79794232773165 -64.28017448045418 7.664598170469519
  endloop
endfacet
facet normal 0.792008715754827 1.1803302973206221e-08 -0.6105097822053217
  outer loop
    vertex -54.79793918056073 -275.4801744804543 7.664598170026042
    vertex -54.362646873537635 -64.28017447396887 8.229302952766064
    vertex -54.36264372636672 -275.48017447396893 8.229302952322588
  endloop
endfacet
facet normal 1.4901283230059836e-08 2.100023863538497e-12 -0.9999999999999999
  outer loop
    vertex -54.79793918056073 -275.4801744804543 7.664598170026042
    vertex -54.92735164093338 -64.28017448238255 7.664598168541153
    vertex -54.79794232773165 -64.28017448045418 7.664598170469519
  endloop
endfacet
facet normal 1.4901283230059836e-08 2.100023863538497e-12 -0.9999999999999999
  outer loop
    vertex -54.92735164093338 -64.28017448238255 7.664598168541153
    vertex -54.79793918056073 -275.4801744804543 7.664598170026042
    vertex -54.927348493762466 -275.48017448238267 7.664598168097675
  endloop
endfacet
facet normal 0.9999953541955093 1.4901314882487165e-08 -0.0030482105238202237
  outer loop
    vertex -54.92735164093338 -64.28017448238255 7.664598168541153
    vertex -54.93757087879081 -275.48017448252796 4.311044515182189
    vertex -54.93757402596172 -64.28017448252784 4.311044515625667
  endloop
endfacet
facet normal 0.9999953541955093 1.4901314882487165e-08 -0.0030482105238202237
  outer loop
    vertex -54.93757087879081 -275.48017448252796 4.311044515182189
    vertex -54.92735164093338 -64.28017448238255 7.664598168541153
    vertex -54.927348493762466 -275.48017448238267 7.664598168097675
  endloop
endfacet
facet normal -1.49008072349103e-08 -2.1000238564455133e-12 0.9999999999999999
  outer loop
    vertex -54.93757087879081 -275.48017448252796 4.311044515182189
    vertex -54.63757402596143 -64.28017447805743 4.311044520095908
    vertex -54.93757402596172 -64.28017448252784 4.311044515625667
  endloop
endfacet
facet normal -1.49008072349103e-08 -2.1000238564455133e-12 0.9999999999999999
  outer loop
    vertex -54.63757402596143 -64.28017447805743 4.311044520095908
    vertex -54.93757087879081 -275.48017448252796 4.311044515182189
    vertex -54.63757087879051 -275.48017447805756 4.31104451965243
  endloop
endfacet
facet normal -0.7436201293801958 -1.108236835362965e-08 0.6686023505646542
  outer loop
    vertex -52.839334566711024 -275.48017445126555 6.311044546447714
    vertex -54.63757402596143 -64.28017447805743 4.311044520095908
    vertex -54.63757087879051 -275.48017447805756 4.31104451965243
  endloop
endfacet
facet normal -0.7436201293801958 -1.108236835362965e-08 0.6686023505646542
  outer loop
    vertex -54.63757402596143 -64.28017447805743 4.311044520095908
    vertex -52.839334566711024 -275.48017445126555 6.311044546447714
    vertex -52.83933771388194 -64.28017445126542 6.311044546891192
  endloop
endfacet
facet normal -1.4901617743442863e-08 -2.100023868523207e-12 0.9999999999999999
  outer loop
    vertex -52.839334566711024 -275.48017445126555 6.311044546447714
    vertex -51.69186284299794 -64.28017443416647 6.311044563990423
    vertex -52.83933771388194 -64.28017445126542 6.311044546891192
  endloop
endfacet
facet normal -1.4901617743442863e-08 -2.100023868523207e-12 0.9999999999999999
  outer loop
    vertex -51.69186284299794 -64.28017443416647 6.311044563990423
    vertex -52.839334566711024 -275.48017445126555 6.311044546447714
    vertex -51.69185969582703 -275.4801744341666 6.311044563546945
  endloop
endfacet
endsolid impresora_printedparts
